
<svg xmlns="http://www.w3.org/2000/svg" width="116" height="94" viewBox="0 0 23 14">
    <g fill="#1F939B">
        <path d="M.5 12h2c.276 0 .5-.225.5-.5s-.224-.5-.5-.5H1.012C1.272 5.44 5.878 1 11.5 1s10.227 4.44 10.488 10H20.5c-.276 0-.5.225-.5.5s.224.5.5.5h2c.276 0 .5-.225.5-.5C23 5.16 17.84 0 11.5 0S0 5.16 0 11.5c0 .275.224.5.5.5"/>
        <path d="M12 2.5c0-.276-.224-.5-.5-.5-1.28 0-2.525.25-3.698.747-1.134.48-2.15 1.164-3.02 2.035-.872.873-1.557 1.89-2.035 3.02-.107.256.012.55.266.656.064.026.13.04.195.04.195 0 .38-.115.46-.307.428-1.01 1.04-1.92 1.822-2.7.78-.78 1.688-1.393 2.7-1.822C9.24 3.225 10.354 3 11.5 3c.276 0 .5-.224.5-.5M16.82 5.115c-.213-.176-.53-.146-.704.064l-3.438 4.13c-.352-.192-.75-.31-1.178-.31C10.122 9 9 10.12 9 11.5s1.122 2.5 2.5 2.5 2.5-1.12 2.5-2.5c0-.588-.212-1.122-.553-1.55l3.438-4.13c.176-.213.147-.528-.065-.705M11.5 13c-.827 0-1.5-.673-1.5-1.5s.673-1.5 1.5-1.5 1.5.673 1.5 1.5-.673 1.5-1.5 1.5"/>
    </g>
</svg>