
<svg xmlns="http://www.w3.org/2000/svg" width="116" height="94" viewBox="0 0 24 22">
    <path fill="#1F939B" d="M23.5 0H.5C.224 0 0 .224 0 .5v21c0 .276.224.5.5.5h23c.276 0 .5-.224.5-.5V.5c0-.276-.224-.5-.5-.5m-2.59 14l-.92-4.598c-.056-.272-.33-.448-.588-.393-.27.053-.447.316-.394.587L19.89 14H18V9.5c0-.276-.224-.5-.5-.5s-.5.224-.5.5V14h-4V9.5c0-.276-.224-.5-.5-.5s-.5.224-.5.5V14h-1V9.5c0-.276-.224-.5-.5-.5s-.5.224-.5.5V14H8.11l.88-4.402c.055-.27-.12-.534-.393-.588-.26-.055-.533.12-.588.393L7.09 14H1V8h22v6h-2.09zM23 7h-3.09l-.92-4.598c-.056-.272-.33-.446-.588-.393-.27.053-.447.316-.394.587L18.89 7H17V2.5c0-.276-.224-.5-.5-.5s-.5.224-.5.5V7h-1V2.5c0-.276-.224-.5-.5-.5s-.5.224-.5.5V7h-1V2.5c0-.276-.224-.5-.5-.5s-.5.224-.5.5V7h-1V2.5c0-.276-.224-.5-.5-.5s-.5.224-.5.5V7H9V1h14v6zM8 7H1V1h7v6zm-7 8h14v6H6v-4.5c0-.276-.224-.5-.5-.5s-.5.224-.5.5V21H4v-4.5c0-.276-.224-.5-.5-.5s-.5.224-.5.5V21H1v-6zm15 0h7v6h-7v-6z"/>
</svg>