<svg xmlns="http://www.w3.org/2000/svg" width="116" height="94" viewBox="0 0 23.997 22">
    <g fill="#1F939B">
        <path d="M22.497 6h-5.5V1c0-.56-.438-1-1-1h-14c-.56 0-1 .44-1 1v8.433l-.93 3.378c-.11.262-.084.56.072.796.16.247.438.394.737.394h11.12v6.5c0 .827.673 1.5 1.5 1.5h9c.827 0 1.5-.673 1.5-1.5v-13c0-.827-.673-1.5-1.5-1.5m-9.5 3h10v9h-10V9zm10-1.5V8h-10v-.5c0-.275.225-.5.5-.5h9c.276 0 .5.225.5.5m-21-6.5h14v5h-2.5c-.826 0-1.5.673-1.5 1.5V9h-10V1zm5.19 12l.373-1h2.87l.358 1h-3.6zm4.663 0l-.597-1.668c-.07-.2-.258-.332-.47-.332H7.21c-.208 0-.395.13-.468.325L6.12 13H1.048l.83-3h10.12v3h-.148zm10.647 8h-9c-.275 0-.5-.225-.5-.5V19h10v1.5c0 .275-.224.5-.5.5"/>
        <path d="M18.287 19.438h-.58c-.275 0-.5.224-.5.5 0 .275.225.5.5.5h.58c.275 0 .5-.225.5-.5 0-.276-.224-.5-.5-.5"/>
    </g>
</svg>