
<svg xmlns="http://www.w3.org/2000/svg" width="116" height="94" viewBox="0 0 23 15">
    <g fill="#1F939B">
        <path d="M3.848 15h14.348C20.846 15 23 12.892 23 10.3c0-2.303-1.754-4.267-4.057-4.622C18.098 2.368 15.025 0 11.5 0 7.28 0 3.845 3.347 3.826 7.467 1.714 7.48 0 9.163 0 11.233 0 13.31 1.726 15 3.848 15m0-6.533c.142 0 .278.02.433.045.15.02.303-.036.414-.14.11-.104.168-.262.157-.414-.01-.152-.024-.304-.024-.458C4.826 3.916 7.82 1 11.5 1c3.177 0 5.93 2.2 6.545 5.233.044.22.23.382.452.398C20.46 6.785 22 8.396 22 10.3c0 2.04-1.707 3.7-3.804 3.7H3.848C2.278 14 1 12.76 1 11.233c0-1.526 1.277-2.766 2.848-2.766"/>
        <path d="M8.5 12h6c.276 0 .5-.224.5-.5v-3c0-.276-.224-.5-.5-.5H14V6.5C14 5.12 12.878 4 11.5 4S9 5.12 9 6.5V8h-.5c-.276 0-.5.224-.5.5v3c0 .276.224.5.5.5M10 6.5c0-.827.673-1.5 1.5-1.5s1.5.673 1.5 1.5V8h-3V6.5zM9 9h5v2H9V9z"/>
    </g>
</svg>