
<svg xmlns="http://www.w3.org/2000/svg" width="116" height="94" viewBox="0 0 24 24">
<path fill="#1F939B" d="M.5 24h23c.173 0 .334-.09.425-.237.09-.146.1-.332.022-.485l-1-2-1-2c-.085-.17-.26-.278-.447-.278H21v-9h1.5c.276 0 .5-.224.5-.5V7.6c.007-.034.02-.065.02-.1 0-.067-.03-.122-.057-.18l-.006-.02c-.024-.053-.053-.096-.093-.138-.02-.023-.05-.04-.073-.058-.03-.022-.05-.056-.087-.07L12.277.084c-.168-.112-.388-.112-.556 0l-10.5 7c-.006.006-.007.017-.015.023-.075.056-.136.127-.17.216-.004.012-.003.023-.006.034-.015.046-.03.092-.03.143v2c0 .276.224.5.5.5H3v9h-.5c-.19 0-.362.107-.447.276l-1 2-1 2c-.078.154-.07.34.022.485.09.15.252.24.425.24m.81-1l.5-1h20.38l.5 1H1.31zM20 19h-2v-9h2v9zm-6-9h3v9h-3v-9zm-7 0h3v9H7v-9zm4 0h2v9h-2v-9zm1-8.9L20.85 7H3.15L12 1.1zM2 8h20v1H2V8zm2 2h2v9H4v-9zM2.81 20h18.38l.5 1H2.31l.5-1z"/>
</svg>