
<svg xmlns="http://www.w3.org/2000/svg" width="116" height="94" viewBox="0 0 24 22">
    <g fill="#1F939B">
        <path d="M23.5 2H20V.5c0-.276-.224-.5-.5-.5s-.5.224-.5.5V2h-4V.5c0-.276-.224-.5-.5-.5s-.5.224-.5.5V2h-4V.5c0-.276-.224-.5-.5-.5S9 .224 9 .5V2H5V.5c0-.276-.224-.5-.5-.5S4 .224 4 .5V2H.5c-.276 0-.5.224-.5.5v19c0 .276.224.5.5.5h23c.276 0 .5-.224.5-.5v-19c0-.276-.224-.5-.5-.5M4 3v.5c0 .276.224.5.5.5s.5-.224.5-.5V3h4v.5c0 .276.224.5.5.5s.5-.224.5-.5V3h4v.5c0 .276.224.5.5.5s.5-.224.5-.5V3h4v.5c0 .276.224.5.5.5s.5-.224.5-.5V3h3v3H1V3h3zM1 7h22v14H1V7z"/>
        <path d="M12 8c-3.31 0-6 2.69-6 6s2.69 6 6 6 6-2.69 6-6-2.69-6-6-6m.5 10.95v-.45c0-.276-.224-.5-.5-.5s-.5.224-.5.5v.45c-2.353-.24-4.21-2.1-4.45-4.45h.45c.276 0 .5-.224.5-.5s-.224-.5-.5-.5h-.45c.24-2.354 2.098-4.21 4.45-4.45v.45c0 .276.224.5.5.5s.5-.224.5-.5v-.45c2.353.24 4.21 2.098 4.45 4.45h-.45c-.276 0-.5.224-.5.5s.224.5.5.5h.45c-.24 2.353-2.097 4.21-4.45 4.45"/>
        <path d="M12.5 13.793V12c0-.276-.224-.5-.5-.5s-.5.224-.5.5v2c0 .064.013.13.038.19.025.062.062.118.11.164l2.06 2.062c.1.1.227.146.355.146.128 0 .256-.05.354-.146.195-.194.195-.513 0-.707L12.5 13.792z"/>
    </g>
</svg>