<?xml version="1.0" encoding="utf-8"?>

<svg id="visual" viewBox="0 0 380 390" width="380px" height="390px" xmlns="http://www.w3.org/2000/svg" xmlns:xlink="http://www.w3.org/1999/xlink" version="1.1">
  <rect x="0" y="0" width="380px" height="390px" fill="transparent"></rect>
  <defs>
    <linearGradient id="grad2_0" x1="0%" y1="0%" x2="66.7%" y2="100%">
      <stop offset="20%" stop-color="#1f939b" stop-opacity="1"></stop>
      <stop offset="80%" stop-color="#1f939b" stop-opacity="1"></stop>
    </linearGradient>
  </defs>
  <defs>
    <linearGradient id="grad2_1" x1="0%" y1="0%" x2="66.7%" y2="100%">
      <stop offset="20%" stop-color="#7ab6bb" stop-opacity="1"></stop>
      <stop offset="80%" stop-color="#1f939b" stop-opacity="1"></stop>
      </linearGradient>
  </defs>
  <defs>
    <linearGradient id="grad2_2" x1="0%" y1="0%" x2="66.7%" y2="100%">
      <stop offset="20%" stop-color="#7ab6bb" stop-opacity="1"></stop>
      <stop offset="80%" stop-color="#bddadd" stop-opacity="1"></stop>
    </linearGradient>
  </defs>
  <defs>
    <linearGradient id="grad2_3" x1="0%" y1="0%" x2="66.7%" y2="100%">
      <stop offset="20%" stop-color="#ffffff" stop-opacity="1"></stop>
      <stop offset="80%" stop-color="#bddadd" stop-opacity="1"></stop>
    </linearGradient>
  </defs>
  <g transform="translate(0, 390)">
    <path d="M0 -378.6C25.6 -388.9 51.2 -399.2 65.7 -372.8C80.3 -346.4 83.9 -283.3 92.3 -253.7C100.8 -224.2 114 -228.2 137 -237.3C160 -246.4 192.6 -260.4 219.8 -262C247.1 -263.5 268.9 -252.6 279.6 -234.6C290.3 -216.6 289.9 -191.7 294.4 -170C299 -148.3 308.5 -130 302.6 -110.1C296.7 -90.3 275.5 -69 285.6 -50.4C295.7 -31.8 337.1 -15.9 378.6 0L0 0Z" fill="#deedee"></path>
    <path d="M0 -283.9C19.2 -291.7 38.4 -299.4 49.3 -279.6C60.2 -259.8 62.9 -212.4 69.3 -190.3C75.6 -168.1 85.5 -171.2 102.7 -178C120 -184.8 144.4 -195.3 164.9 -196.5C185.3 -197.7 201.7 -189.4 209.7 -176C217.7 -162.5 217.4 -143.8 220.8 -127.5C224.2 -111.2 231.3 -97.5 226.9 -82.6C222.5 -67.7 206.6 -51.7 214.2 -37.8C221.8 -23.8 252.9 -11.9 283.9 0L0 0Z" fill="#9cc8cc"></path>
    <path d="M0 -189.3C12.8 -194.5 25.6 -199.6 32.9 -186.4C40.2 -173.2 42 -141.6 46.2 -126.9C50.4 -112.1 57 -114.1 68.5 -118.6C80 -123.2 96.3 -130.2 109.9 -131C123.5 -131.8 134.4 -126.3 139.8 -117.3C145.2 -108.3 145 -95.8 147.2 -85C149.5 -74.2 154.2 -65 151.3 -55.1C148.4 -45.1 137.7 -34.5 142.8 -25.2C147.9 -15.9 168.6 -7.9 189.3 0L0 0Z" fill="#54a5ab"></path>
    <path d="M0 -94.6C6.4 -97.2 12.8 -99.8 16.4 -93.2C20.1 -86.6 21 -70.8 23.1 -63.4C25.2 -56 28.5 -57.1 34.2 -59.3C40 -61.6 48.1 -65.1 55 -65.5C61.8 -65.9 67.2 -63.1 69.9 -58.7C72.6 -54.2 72.5 -47.9 73.6 -42.5C74.7 -37.1 77.1 -32.5 75.6 -27.5C74.2 -22.6 68.9 -17.2 71.4 -12.6C73.9 -7.9 84.3 -4 94.6 0L0 0Z" fill="#1f939b"></path>
  </g>
</svg>