<?xml version="1.0" encoding="utf-8"?>

<svg id="visual" viewBox="0 0 380 380" width="380px" height="380px" xmlns="http://www.w3.org/2000/svg" xmlns:xlink="http://www.w3.org/1999/xlink" version="1.1">
  <rect x="0" y="0" width="380px" height="380px" fill="transparent"></rect>
  <defs>
    <linearGradient id="grad1_0" x1="33.3%" y1="0%" x2="100%" y2="100%">
      <stop offset="20%" stop-color="#1f939b" stop-opacity="1"></stop>
      <stop offset="80%" stop-color="#1f939b" stop-opacity="1"></stop>
    </linearGradient>
  </defs>
  <defs>
    <linearGradient id="grad1_1" x1="33.3%" y1="0%" x2="100%" y2="100%">
      <stop offset="20%" stop-color="#1f939b" stop-opacity="1"></stop>
      <stop offset="80%" stop-color="#7ab6bb" stop-opacity="1"></stop>
    </linearGradient>
  </defs>
  <defs>
    <linearGradient id="grad1_2" x1="33.3%" y1="0%" x2="100%" y2="100%">
      <stop offset="20%" stop-color="#bddadd" stop-opacity="1"></stop>
      <stop offset="80%" stop-color="#7ab6bb" stop-opacity="1"></stop>
    </linearGradient>
  </defs>
  <defs>
    <linearGradient id="grad1_3" x1="33.3%" y1="0%" x2="100%" y2="100%">
      <stop offset="20%" stop-color="#bddadd" stop-opacity="1"></stop>
      <stop offset="80%" stop-color="#ffffff" stop-opacity="1"></stop>
    </linearGradient>
  </defs>
  <g transform="translate(380, 0)">
    <path d="M0 378.6C-17.3 335.6 -34.7 292.7 -47.6 269.8C-60.5 247 -69 244.3 -96.8 265.9C-124.6 287.6 -171.8 333.6 -189.3 327.9C-206.8 322.2 -194.8 264.7 -198.6 236.7C-202.5 208.7 -222.2 210.1 -248.2 208.3C-274.2 206.5 -306.3 201.5 -321.3 185.5C-336.3 169.5 -334 142.7 -327 119C-320 95.4 -308.3 75 -316.1 55.7C-323.9 36.4 -351.3 18.2 -378.6 0L0 0Z" fill="#deedee"></path>
    <path d="M0 283.9C-13 251.7 -26 219.5 -35.7 202.4C-45.4 185.3 -51.7 183.2 -72.6 199.4C-93.5 215.7 -128.8 250.2 -142 245.9C-155.1 241.6 -146.1 198.5 -149 177.5C-151.9 156.5 -166.7 157.6 -186.1 156.2C-205.6 154.8 -229.8 151.1 -241 139.1C-252.2 127.2 -250.5 107 -245.3 89.3C-240 71.5 -231.2 56.3 -237.1 41.8C-242.9 27.3 -263.4 13.7 -283.9 0L0 0Z" fill="#9cc8cc"></path>
    <path d="M0 189.3C-8.7 167.8 -17.3 146.3 -23.8 134.9C-30.2 123.5 -34.5 122.1 -48.4 133C-62.3 143.8 -85.9 166.8 -94.6 163.9C-103.4 161.1 -97.4 132.4 -99.3 118.4C-101.2 104.3 -111.1 105 -124.1 104.1C-137.1 103.2 -153.2 100.7 -160.6 92.8C-168.1 84.8 -167 71.3 -163.5 59.5C-160 47.7 -154.2 37.5 -158.1 27.9C-162 18.2 -175.6 9.1 -189.3 0L0 0Z" fill="#54a5ab"></path>
    <path d="M0 94.6C-4.3 83.9 -8.7 73.2 -11.9 67.5C-15.1 61.8 -17.2 61.1 -24.2 66.5C-31.2 71.9 -42.9 83.4 -47.3 82C-51.7 80.5 -48.7 66.2 -49.7 59.2C-50.6 52.2 -55.6 52.5 -62 52.1C-68.5 51.6 -76.6 50.4 -80.3 46.4C-84.1 42.4 -83.5 35.7 -81.8 29.8C-80 23.8 -77.1 18.8 -79 13.9C-81 9.1 -87.8 4.6 -94.6 0L0 0Z" fill="#1f939b"></path>
  </g>
</svg>